<svg xmlns="http://www.w3.org/2000/svg" xmlns:xlink="http://www.w3.org/1999/xlink" width="752" zoomAndPan="magnify" viewBox="0 0 564 353.249998" height="471" preserveAspectRatio="xMidYMid meet" version="1.0"><defs><g/><clipPath id="5c364041b0"><path d="M 63 63 L 297 63 L 297 293 L 63 293 Z M 63 63 " clip-rule="nonzero"/></clipPath><clipPath id="1abedf00c4"><path d="M 262.191406 38.039062 L 322.03125 251.785156 L 97.761719 314.574219 L 37.917969 100.832031 Z M 262.191406 38.039062 " clip-rule="nonzero"/></clipPath><clipPath id="43ae24f48f"><path d="M 97.878906 314.605469 L 38.035156 100.863281 L 262.304688 38.070312 L 322.148438 251.816406 Z M 97.878906 314.605469 " clip-rule="nonzero"/></clipPath><clipPath id="ac3d445902"><path d="M 185 148 L 210.648438 148 L 210.648438 169.511719 L 185 169.511719 Z M 185 148 " clip-rule="nonzero"/></clipPath><clipPath id="7031ad2094"><path d="M 186.847656 151.488281 C 184.863281 154.761719 186.261719 157.949219 188.023438 159.640625 L 198.3125 169.511719 L 208.382812 159.675781 C 210.019531 157.855469 210.648438 155.925781 210.296875 153.777344 C 209.816406 150.804688 207.367188 148.496094 204.339844 148.167969 C 202.484375 147.964844 200.691406 148.492188 199.292969 149.65625 C 198.914062 149.96875 198.578125 150.316406 198.285156 150.699219 C 197.9375 150.265625 197.527344 149.871094 197.066406 149.519531 C 195.457031 148.296875 193.410156 147.808594 191.441406 148.1875 C 189.578125 148.546875 187.902344 149.75 186.847656 151.488281 " clip-rule="nonzero"/></clipPath></defs><g clip-path="url(#5c364041b0)"><g clip-path="url(#1abedf00c4)"><g clip-path="url(#43ae24f48f)"><path fill="#000000" d="M 194.0625 160.21875 C 195.390625 163.339844 195.0625 166.34375 193.539062 169.328125 C 191.898438 172.535156 189.300781 175.257812 186.339844 177.195312 C 183.382812 179.132812 179.851562 180.621094 176.347656 180.617188 C 172.960938 180.613281 170.183594 178.925781 168.523438 175.925781 C 167.769531 174.566406 167.199219 172.652344 167.0625 171.132812 C 166.890625 169.191406 167.097656 167.285156 167.570312 165.398438 C 168.59375 161.355469 170.667969 157.613281 172.890625 154.113281 C 177.066406 147.542969 183.105469 140.945312 190.828125 139.160156 C 197.808594 137.542969 204.183594 140.941406 208.902344 146.171875 C 213.777344 151.578125 216.710938 158.667969 218.277344 165.929688 C 221.433594 180.601562 218.035156 197.203125 206.84375 207.796875 C 196.324219 217.757812 179.976562 221.71875 166.804688 214.976562 C 160.285156 211.640625 155.109375 206.355469 151.34375 200.128906 C 147.578125 193.902344 145.136719 186.355469 144.46875 178.644531 C 143.703125 169.789062 144.84375 160.925781 147.042969 152.347656 C 149.152344 144.117188 151.992188 135.855469 155.996094 128.339844 C 157.890625 124.785156 160.097656 121.402344 162.839844 118.4375 C 165.777344 115.265625 169.207031 112.792969 173.097656 110.894531 C 177.191406 108.894531 181.632812 107.628906 186.0625 106.613281 C 190.242188 105.65625 194.480469 104.96875 198.765625 104.71875 C 207.074219 104.234375 215.441406 105.472656 222.722656 109.28125 C 229.339844 112.742188 234.773438 117.792969 239.539062 123.636719 C 244.304688 129.480469 248.300781 136.214844 251.886719 142.894531 C 255.582031 149.765625 259.085938 156.75 261.785156 163.949219 C 264.511719 171.226562 266.484375 178.652344 266.347656 186.339844 C 266.214844 193.660156 263.757812 200.84375 258.984375 206.480469 C 253.914062 212.472656 247.214844 216.570312 240.140625 219.957031 C 232.085938 223.8125 223.339844 226.863281 214.746094 229.765625 C 205.113281 233.019531 195.347656 235.949219 185.476562 238.375 C 176.882812 240.484375 168.035156 241.789062 159.5 239.417969 C 143.804688 235.054688 132.585938 221.421875 126.640625 206.640625 C 123.082031 197.785156 120.964844 188.402344 119.472656 178.996094 C 118.027344 169.898438 117.332031 160.613281 118.035156 151.414062 C 119.277344 135.132812 125.871094 119.703125 136.621094 107.484375 C 148.269531 94.242188 164.179688 85.484375 181.484375 81.992188 C 198.558594 78.546875 216.972656 80.4375 232.550781 88.167969 C 246.683594 95.183594 258.46875 106.402344 266.636719 119.820312 C 275.679688 134.683594 279.953125 152.054688 280.023438 169.382812 C 280.0625 178.316406 279.003906 187.21875 276.90625 195.902344 C 274.882812 204.261719 271.914062 212.589844 266.738281 219.554688 C 261.5625 226.519531 254.4375 231.929688 247.035156 236.4375 C 239.152344 241.234375 230.816406 245.355469 222.242188 248.75 C 204.75 255.671875 186.066406 259.675781 167.222656 259.605469 C 158.488281 259.570312 149.671875 258.796875 141.273438 256.285156 C 133.132812 253.855469 125.964844 249.539062 119.945312 243.554688 C 113.730469 237.371094 108.855469 229.976562 104.535156 222.390625 C 99.976562 214.394531 96.144531 205.996094 93.214844 197.269531 C 87.558594 180.398438 85.179688 161.949219 88.070312 144.46875 C 90.554688 129.449219 96.625 114.875 106.085938 103.058594 C 110.828125 97.132812 116.328125 91.902344 122.5 87.714844 C 130.285156 82.429688 139.007812 78.789062 147.992188 76.097656 C 157.253906 73.324219 166.835938 71.265625 176.441406 70.164062 C 185.144531 69.164062 194.414062 68.960938 202.859375 70.113281 C 217.734375 72.144531 231.660156 77.585938 244.15625 85.8125 C 256.351562 93.839844 266.964844 104.640625 274.621094 117.113281 C 278.871094 124.039062 281.949219 130.933594 284.332031 138.636719 C 287.285156 148.203125 288.925781 158.113281 289.902344 168.0625 C 290.394531 173.078125 290.730469 178.109375 291 183.140625 C 291.257812 188.007812 291.585938 192.902344 291.484375 197.777344 C 291.394531 202.320312 290.679688 206.699219 289.164062 210.992188 C 287.734375 215.03125 285.6875 218.84375 283.476562 222.503906 C 275.347656 235.96875 263.929688 247.316406 251.054688 256.226562 C 237.703125 265.457031 223 272.261719 207.667969 277.320312 C 192.59375 282.292969 176.792969 286.054688 161.050781 286.96875 C 145.621094 287.863281 129.824219 285.726562 116.898438 276.804688 C 109.707031 271.84375 103.863281 265.023438 98.710938 258.035156 C 93.554688 251.039062 89.023438 243.582031 85.160156 235.796875 C 77.527344 220.414062 72.5 203.613281 70.414062 186.5625 C 68.328125 169.472656 68.992188 151.941406 72.90625 135.152344 C 76.257812 120.769531 82.554688 105.859375 94.980469 97.277344 C 96.171875 96.453125 96.675781 94.890625 95.894531 93.59375 C 95.183594 92.410156 93.410156 91.851562 92.210938 92.679688 C 78.03125 102.472656 70.914062 119.097656 67.34375 135.414062 C 63.429688 153.316406 62.9375 171.867188 65.496094 189.992188 C 68.046875 208.054688 73.707031 225.648438 82.207031 241.792969 C 86.433594 249.820312 91.378906 257.476562 97.007812 264.601562 C 102.632812 271.726562 109.441406 278.828125 117.628906 283.625 C 131.9375 292.011719 149.136719 293.511719 165.359375 292.015625 C 182.101562 290.46875 198.785156 286.308594 214.578125 280.601562 C 230.449219 274.867188 245.773438 267.207031 259.195312 256.914062 C 272.59375 246.636719 284.566406 233.609375 291.890625 218.269531 C 293.933594 213.992188 295.574219 209.476562 296.269531 204.777344 C 297.019531 199.738281 296.90625 194.675781 296.679688 189.601562 C 296.210938 179.023438 295.5625 168.453125 294.046875 157.964844 C 292.601562 147.984375 290.304688 138.058594 286.472656 128.703125 C 283.492188 121.429688 279.695312 114.527344 275.089844 108.152344 C 265.824219 95.328125 253.710938 84.617188 239.867188 76.949219 C 225.953125 69.246094 210.328125 64.660156 194.414062 64.046875 C 184.175781 63.652344 173.925781 64.800781 163.886719 66.734375 C 153.957031 68.648438 144.054688 71.207031 134.726562 75.144531 C 126.199219 78.746094 118.320312 83.460938 111.402344 89.632812 C 105.367188 95.015625 100.191406 101.359375 95.925781 108.21875 C 87.1875 122.28125 82.375 138.640625 81.605469 155.140625 C 80.6875 174.726562 85.316406 194.207031 93.269531 212.019531 C 97.125 220.660156 101.769531 229.046875 107.28125 236.75 C 112.664062 244.261719 119.070312 251.15625 127.058594 255.933594 C 134.953125 260.65625 143.980469 262.992188 153.046875 264.117188 C 162.492188 265.289062 172.113281 265.226562 181.578125 264.269531 C 201.460938 262.257812 220.761719 256.226562 238.578125 247.234375 C 247.019531 242.976562 255.28125 238.136719 262.445312 231.921875 C 269.605469 225.707031 274.847656 218.042969 278.351562 209.261719 C 281.796875 200.621094 283.699219 191.351562 284.714844 182.132812 C 285.757812 172.65625 285.566406 163.105469 284.195312 153.675781 C 281.609375 135.871094 274.320312 119.007812 262.691406 105.242188 C 251.855469 92.417969 237.320312 82.585938 221.089844 78.066406 C 202.375 72.855469 181.738281 74.320312 163.820312 81.769531 C 147.105469 88.71875 132.914062 100.679688 123.640625 116.265625 C 119.339844 123.492188 116.128906 131.453125 114.34375 139.675781 C 112.265625 149.261719 112.007812 159.160156 112.855469 168.902344 C 113.714844 178.796875 115.417969 188.746094 118.144531 198.300781 C 120.828125 207.699219 124.734375 216.96875 130.621094 224.828125 C 135.589844 231.464844 141.859375 237.207031 149.238281 241.0625 C 157.195312 245.214844 165.96875 246.769531 174.882812 245.777344 C 179.875 245.222656 184.765625 244.109375 189.621094 242.851562 C 194.847656 241.496094 200.046875 240.027344 205.214844 238.453125 C 215.085938 235.445312 224.882812 232.085938 234.460938 228.234375 C 249.8125 222.058594 265.921875 212.972656 270.445312 195.800781 C 274.746094 179.464844 267.710938 162.417969 260.550781 147.988281 C 253.527344 133.839844 245.382812 118.984375 232.5625 109.25 C 225.589844 103.957031 217.644531 100.660156 208.9375 99.621094 C 199.691406 98.519531 190.179688 99.875 181.234375 102.285156 C 176.386719 103.589844 171.578125 105.359375 167.265625 107.957031 C 163.421875 110.269531 160.011719 113.292969 157.195312 116.777344 C 151.523438 123.789062 147.957031 132.175781 145.007812 140.625 C 139.089844 157.566406 135.914062 176.945312 142.523438 194.171875 C 148.359375 209.394531 161.179688 222.15625 178.011719 223.601562 C 194.410156 225.003906 210.84375 215.394531 218.691406 201.160156 C 226.851562 186.355469 226.492188 167.730469 219.429688 152.597656 C 216.191406 145.664062 210.921875 138.921875 203.859375 135.601562 C 200.1875 133.875 196.121094 133.058594 192.066406 133.542969 C 187.550781 134.082031 183.328125 135.933594 179.699219 138.660156 C 172.441406 144.113281 166.769531 152.226562 163.484375 160.652344 C 161.855469 164.828125 161.160156 169.328125 162.074219 173.753906 C 162.941406 177.933594 165.398438 181.890625 169.113281 184.089844 C 176.503906 188.464844 185.917969 184.667969 191.9375 179.671875 C 197.796875 174.8125 202.476562 166.378906 199.238281 158.769531 C 198.667969 157.4375 197.453125 156.480469 195.929688 156.910156 C 194.402344 157.335938 193.496094 158.875 194.066406 160.214844 Z M 194.0625 160.21875 " fill-opacity="1" fill-rule="nonzero"/></g></g></g><g clip-path="url(#ac3d445902)"><g clip-path="url(#7031ad2094)"><path fill="#000000" d="M 185.878906 148.0625 L 210.390625 148.0625 L 210.390625 169.511719 L 185.878906 169.511719 Z M 185.878906 148.0625 " fill-opacity="1" fill-rule="nonzero"/></g></g><g fill="#000000" fill-opacity="1"><g transform="translate(322.340792, 206.706914)"><g><path d="M 57.117188 -36.617188 C 55.828125 -37.003906 54.925781 -36.746094 54.539062 -35.585938 C 52.089844 -29.65625 46.546875 -12.378906 40.613281 -8.898438 L 40.484375 -8.898438 C 40.097656 -20.757812 42.804688 -31.460938 44.742188 -42.417969 C 45.644531 -47.578125 47.0625 -52.605469 46.675781 -57.890625 C 46.289062 -60.339844 45.902344 -62.664062 43.449219 -63.824219 C 40.742188 -64.984375 38.035156 -65.113281 35.84375 -63.050781 C 29.785156 -57.761719 27.464844 -50.027344 24.496094 -43.191406 C 24.496094 -49.125 25.785156 -57.117188 19.597656 -59.179688 C 14.441406 -60.855469 10.445312 -57.246094 7.992188 -53.636719 C 8.121094 -59.695312 9.027344 -64.726562 7.605469 -69.238281 C 7.089844 -70.914062 4.769531 -71.945312 3.09375 -71.429688 C 1.160156 -70.914062 2.0625 -69.496094 2.0625 -68.464844 C 1.675781 -62.148438 1.804688 -56.34375 1.417969 -50.671875 C 0.386719 -37.261719 -2.835938 -24.882812 -1.160156 -12.636719 C -0.773438 -10.574219 0.515625 -9.542969 2.835938 -9.671875 C 4.511719 -9.800781 5.285156 -10.832031 5.15625 -13.023438 C 4.511719 -28.109375 5.671875 -45.902344 17.277344 -55.828125 C 19.339844 -43.835938 17.40625 -32.363281 17.019531 -21.273438 C 17.019531 -17.535156 18.953125 -12.765625 22.949219 -13.152344 C 26.042969 -13.152344 24.882812 -16.761719 24.882812 -18.4375 C 24.882812 -30.558594 30.300781 -53.121094 40.484375 -60.597656 C 40.871094 -48.738281 37.777344 -38.550781 35.714844 -27.59375 C 34.683594 -21.402344 31.332031 -5.027344 40.871094 -5.027344 C 47.707031 -5.414062 53.378906 -22.5625 58.148438 -34.039062 C 58.535156 -35.070312 58.148438 -36.230469 57.117188 -36.617188 Z M 57.117188 -36.617188 "/></g></g></g><g fill="#000000" fill-opacity="1"><g transform="translate(376.871412, 206.706914)"><g><path d="M 35.199219 -34.039062 C 35.714844 -35.070312 35.199219 -36.230469 34.167969 -36.617188 C 33.265625 -37.003906 32.105469 -36.488281 31.589844 -35.585938 C 29.140625 -29.785156 28.109375 -25.65625 25.140625 -26.171875 C 24.109375 -26.300781 23.207031 -27.078125 22.175781 -28.109375 C 24.367188 -37.90625 24.367188 -46.417969 21.273438 -55.570312 C 20.757812 -56.988281 19.46875 -58.277344 18.050781 -58.664062 C 15.601562 -59.050781 12.894531 -58.792969 10.316406 -58.792969 C 8.636719 -57.890625 7.21875 -55.957031 6.574219 -54.539062 C 0.257812 -41.128906 -2.964844 -27.335938 -1.804688 -12.378906 C -1.417969 -4.769531 6.703125 4.125 13.152344 -3.996094 C 17.921875 -10.058594 19.339844 -16.761719 21.273438 -23.851562 C 22.691406 -22.949219 24.109375 -22.175781 25.527344 -22.175781 C 30.6875 -22.175781 32.75 -28.238281 35.199219 -34.039062 Z M 17.148438 -26.820312 C 14.570312 -17.921875 12.636719 -10.316406 7.089844 -4.125 C -0.128906 -15.730469 5.929688 -42.03125 13.152344 -54.28125 C 13.539062 -49.769531 13.667969 -45.773438 14.054688 -41.773438 C 14.570312 -36.746094 14.957031 -32.363281 16.890625 -27.851562 C 17.019531 -27.464844 17.148438 -27.207031 17.148438 -26.820312 Z M 17.148438 -26.820312 "/></g></g></g><g fill="#000000" fill-opacity="1"><g transform="translate(408.455347, 206.706914)"><g><path d="M 39.582031 -36.617188 C 38.550781 -37.003906 37.390625 -36.488281 37.003906 -35.585938 C 35.972656 -32.621094 34.683594 -29.914062 33.78125 -27.207031 C 31.71875 -22.046875 27.59375 -10.703125 25.140625 -9.671875 C 22.691406 -16.246094 24.753906 -40.742188 23.722656 -51.445312 C 23.335938 -56.085938 18.050781 -57.246094 15.214844 -54.410156 C 10.703125 -49.898438 8.898438 -45.644531 6.445312 -41.515625 L 6.1875 -61.5 C 6.1875 -63.4375 4.640625 -64.210938 2.707031 -64.210938 C 0.773438 -64.210938 1.03125 -62.792969 1.03125 -61.628906 C 0.515625 -42.675781 -0.902344 -24.496094 0 -5.800781 C 0.386719 -2.578125 6.574219 -0.773438 6.574219 -5.15625 C 6.1875 -10.445312 6.058594 -15.730469 6.1875 -20.886719 C 6.574219 -33.78125 10.960938 -44.355469 18.566406 -52.734375 C 20.628906 -47.578125 14.957031 -4.769531 25.011719 -5.800781 C 29.527344 -6.316406 32.878906 -13.667969 37.390625 -25.914062 C 39.324219 -30.558594 39.710938 -32.105469 40.613281 -34.039062 C 41 -35.070312 40.484375 -36.230469 39.582031 -36.617188 Z M 39.582031 -36.617188 "/></g></g></g><g fill="#000000" fill-opacity="1"><g transform="translate(445.45367, 206.706914)"><g><path d="M 20.757812 -50.027344 C 13.539062 -56.214844 6.703125 -50.800781 3.609375 -44.613281 C -1.160156 -35.328125 -4.253906 -18.695312 -1.160156 -10.445312 C 0.644531 -5.800781 7.605469 -4.382812 12.378906 -11.863281 L 19.339844 -27.335938 C 19.726562 -18.179688 19.597656 -9.800781 22.046875 -0.644531 C 23.078125 3.222656 30.816406 7.734375 31.460938 1.160156 C 32.105469 -4.898438 30.171875 -11.21875 29.140625 -17.921875 C 27.980469 -26.558594 25.65625 -35.070312 26.558594 -43.835938 C 27.722656 -54.667969 29.140625 -64.984375 29.65625 -75.8125 C 29.527344 -77.746094 29.011719 -78.261719 26.949219 -78.648438 C 25.011719 -79.035156 23.851562 -78.390625 23.335938 -76.84375 C 20.886719 -68.464844 21.789062 -59.4375 20.757812 -50.027344 Z M 4.640625 -9.929688 C 1.03125 -12.378906 4.898438 -33.910156 10.058594 -44.222656 C 10.445312 -45.386719 14.570312 -51.058594 16.503906 -48.738281 C 18.695312 -46.03125 18.953125 -42.417969 18.050781 -38.9375 C 15.214844 -28.496094 6.445312 -9.285156 4.640625 -9.929688 Z M 4.640625 -9.929688 "/></g></g></g><g fill="#000000" fill-opacity="1"><g transform="translate(478.455658, 206.706914)"><g><path d="M 27.464844 -36.875 C 26.429688 -37.261719 25.398438 -36.488281 24.882812 -35.585938 C 19.726562 -20.757812 7.992188 -1.933594 5.15625 -3.996094 C 3.480469 -4.382812 3.480469 -11.992188 3.480469 -13.023438 C 3.996094 -19.339844 4.640625 -25.527344 5.542969 -31.71875 C 5.671875 -32.75 6.1875 -33.523438 7.21875 -33.910156 C 13.023438 -36.746094 16.890625 -41.128906 18.824219 -47.0625 C 19.726562 -49.640625 18.566406 -51.703125 15.988281 -52.605469 C 8.121094 -54.925781 3.867188 -48.09375 1.804688 -41.773438 C -1.160156 -33.652344 -1.933594 -25.527344 -2.320312 -17.277344 C -2.707031 -11.476562 -3.222656 -0.128906 5.285156 -0.128906 C 14.570312 -1.160156 24.367188 -21.660156 28.496094 -34.039062 C 28.882812 -35.070312 28.625 -36.488281 27.464844 -36.875 Z M 13.925781 -50.542969 C 16.632812 -51.1875 11.089844 -40.484375 7.089844 -38.421875 C 8.507812 -43.0625 9.929688 -49.511719 13.925781 -50.542969 Z M 13.925781 -50.542969 "/></g></g></g></svg>